<?xml version="1.0" encoding="iso-8859-1"?>
<!-- Generator: Adobe Illustrator 19.0.0, SVG Export Plug-In . SVG Version: 6.00 Build 0)  -->
<svg version="1.1" id="Layer_1" xmlns="http://www.w3.org/2000/svg" xmlns:xlink="http://www.w3.org/1999/xlink" x="0px" y="0px"
	 viewBox="0 0 512 512" style="enable-background:new 0 0 512 512;" xml:space="preserve">
<g>
	<g>
		<g>
			<path d="M432.781,384h-88.927c-5.375,0-8.135-3.542-9.073-5.063c-0.948-1.521-2.875-5.573-0.469-10.375l130.417-260.833
				c3.01-6.01,4.604-12.76,4.604-19.51c0-25.979-19.573-45.552-43.625-45.552c-16.635,0-31.594,9.24-39.031,24.115l-66.698,133.406
				c-11.365-20.781-34.948-32.438-58.406-28.865h-0.01l-113.385,17.448c-17.063,2.625-31.865,13.417-39.583,28.865L51.698,331.406
				c-5.906,11.833-9.031,25.073-9.031,38.281c0,32.635,18.125,61.979,47.313,76.563l100.281,50.135
				C210.677,506.604,233.552,512,256.396,512c14.979,0,29.823-2.271,44.115-6.74l150.667-47.083
				c2.771-0.865,5.063-2.813,6.365-5.406l7.938-15.865c2.521-5.063,3.854-10.719,3.854-16.354
				C469.333,400.396,452.938,384,432.781,384z"/>
			<path d="M53.333,128.469c0.875,0,1.76-0.104,2.635-0.333l85.333-21.802c3.5-0.896,6.302-3.49,7.469-6.906
				c1.156-3.417,0.51-7.188-1.719-10.021l-8.75-11.122C173.083,55.266,214.074,42.667,256,42.667
				c30.823,0,60.374,6.362,88.005,18.928c5.216,2.372,11.324,0.448,13.94-4.65l9.732-18.965c2.764-5.386,0.565-12.2-4.933-14.732
				C329.24,7.815,293.39,0,256,0c-51.577,0-102.038,15.771-144.419,44.728c-0.102,0.065-12.836,9.178-18.57,13.918l0.018,0.022
				c-18.547,15.324-34.827,33.103-48.497,53.113c-2.51,3.667-2.479,8.5,0.063,12.135C46.625,126.813,49.906,128.469,53.333,128.469z
				"/>
		</g>
	</g>
</g>
<g>
</g>
<g>
</g>
<g>
</g>
<g>
</g>
<g>
</g>
<g>
</g>
<g>
</g>
<g>
</g>
<g>
</g>
<g>
</g>
<g>
</g>
<g>
</g>
<g>
</g>
<g>
</g>
<g>
</g>
</svg>
